<?xml version="1.0" encoding="UTF-8" standalone="no"?>
<!DOCTYPE svg PUBLIC "-//W3C//DTD SVG 1.1//EN"
 "http://www.w3.org/Graphics/SVG/1.1/DTD/svg11.dtd">
<!-- Generated by graphviz version 2.30.1 (20180420.1509)
 -->
<!-- Title: snakemake_dag Pages: 1 -->
<svg width="1148pt" height="492pt"
 viewBox="0.00 0.00 1148.00 492.00" xmlns="http://www.w3.org/2000/svg" xmlns:xlink="http://www.w3.org/1999/xlink">
<g id="graph0" class="graph" transform="scale(1 1) rotate(0) translate(4 488)">
<title>snakemake_dag</title>
<polygon fill="white" stroke="white" points="-4,5 -4,-488 1145,-488 1145,5 -4,5"/>
<!-- 0 -->
<g id="node1" class="node"><title>0</title>
<path fill="none" stroke="#80d856" stroke-width="2" d="M432,-36C432,-36 402,-36 402,-36 396,-36 390,-30 390,-24 390,-24 390,-12 390,-12 390,-6 396,-0 402,-0 402,-0 432,-0 432,-0 438,-0 444,-6 444,-12 444,-12 444,-24 444,-24 444,-30 438,-36 432,-36"/>
<text text-anchor="middle" x="417" y="-15.5" font-family="sans" font-size="10.00">report</text>
</g>
<!-- 1 -->
<g id="node2" class="node"><title>1</title>
<path fill="none" stroke="#d85656" stroke-width="2" d="M629,-324C629,-324 599,-324 599,-324 593,-324 587,-318 587,-312 587,-312 587,-300 587,-300 587,-294 593,-288 599,-288 599,-288 629,-288 629,-288 635,-288 641,-294 641,-300 641,-300 641,-312 641,-312 641,-318 635,-324 629,-324"/>
<text text-anchor="middle" x="614" y="-303.5" font-family="sans" font-size="10.00">multiqc</text>
</g>
<!-- 1&#45;&gt;0 -->
<g id="edge1" class="edge"><title>1&#45;&gt;0</title>
<path fill="none" stroke="grey" stroke-width="2" d="M603.04,-287.771C578.11,-248.775 514.903,-151.002 458,-72 451.405,-62.8436 443.921,-53.0169 437.169,-44.3423"/>
<polygon fill="grey" stroke="grey" points="439.897,-42.1487 430.973,-36.438 434.388,-46.4674 439.897,-42.1487"/>
</g>
<!-- 2 -->
<g id="node3" class="node"><title>2</title>
<path fill="none" stroke="#56d8a9" stroke-width="2" stroke-dasharray="5,2" d="M629,-396C629,-396 599,-396 599,-396 593,-396 587,-390 587,-384 587,-384 587,-372 587,-372 587,-366 593,-360 599,-360 599,-360 629,-360 629,-360 635,-360 641,-366 641,-372 641,-372 641,-384 641,-384 641,-390 635,-396 629,-396"/>
<text text-anchor="middle" x="614" y="-375.5" font-family="sans" font-size="10.00">fastqc</text>
</g>
<!-- 2&#45;&gt;1 -->
<g id="edge7" class="edge"><title>2&#45;&gt;1</title>
<path fill="none" stroke="grey" stroke-width="2" d="M614,-359.697C614,-351.983 614,-342.712 614,-334.112"/>
<polygon fill="grey" stroke="grey" points="617.5,-334.104 614,-324.104 610.5,-334.104 617.5,-334.104"/>
</g>
<!-- 3 -->
<g id="node4" class="node"><title>3</title>
<path fill="none" stroke="#d6d856" stroke-width="2" stroke-dasharray="5,2" d="M652.25,-484C652.25,-484 575.75,-484 575.75,-484 569.75,-484 563.75,-478 563.75,-472 563.75,-472 563.75,-444 563.75,-444 563.75,-438 569.75,-432 575.75,-432 575.75,-432 652.25,-432 652.25,-432 658.25,-432 664.25,-438 664.25,-444 664.25,-444 664.25,-472 664.25,-472 664.25,-478 658.25,-484 652.25,-484"/>
<text text-anchor="middle" x="614" y="-472" font-family="sans" font-size="10.00">clean_names</text>
<text text-anchor="middle" x="614" y="-461" font-family="sans" font-size="10.00">lane: 1</text>
<text text-anchor="middle" x="614" y="-450" font-family="sans" font-size="10.00">read: R1</text>
<text text-anchor="middle" x="614" y="-439" font-family="sans" font-size="10.00">sample: sample1</text>
</g>
<!-- 3&#45;&gt;2 -->
<g id="edge15" class="edge"><title>3&#45;&gt;2</title>
<path fill="none" stroke="grey" stroke-width="2" d="M614,-431.891C614,-423.84 614,-414.88 614,-406.658"/>
<polygon fill="grey" stroke="grey" points="617.5,-406.411 614,-396.411 610.5,-406.411 617.5,-406.411"/>
</g>
<!-- 19 -->
<g id="node20" class="node"><title>19</title>
<path fill="none" stroke="#d8ac56" stroke-width="2" d="M400,-396C400,-396 370,-396 370,-396 364,-396 358,-390 358,-384 358,-384 358,-372 358,-372 358,-366 364,-360 370,-360 370,-360 400,-360 400,-360 406,-360 412,-366 412,-372 412,-372 412,-384 412,-384 412,-390 406,-396 400,-396"/>
<text text-anchor="middle" x="385" y="-375.5" font-family="sans" font-size="10.00">counts</text>
</g>
<!-- 3&#45;&gt;19 -->
<g id="edge24" class="edge"><title>3&#45;&gt;19</title>
<path fill="none" stroke="grey" stroke-width="2" d="M563.739,-435.596C560.457,-434.342 557.191,-433.132 554,-432 500.719,-413.101 485.717,-413.623 432,-396 428.684,-394.912 425.25,-393.747 421.817,-392.554"/>
<polygon fill="grey" stroke="grey" points="422.837,-389.203 412.242,-389.167 420.502,-395.802 422.837,-389.203"/>
</g>
<!-- 4 -->
<g id="node5" class="node"><title>4</title>
<path fill="none" stroke="#56d8a9" stroke-width="2" stroke-dasharray="5,2" d="M556,-396C556,-396 526,-396 526,-396 520,-396 514,-390 514,-384 514,-384 514,-372 514,-372 514,-366 520,-360 526,-360 526,-360 556,-360 556,-360 562,-360 568,-366 568,-372 568,-372 568,-384 568,-384 568,-390 562,-396 556,-396"/>
<text text-anchor="middle" x="541" y="-375.5" font-family="sans" font-size="10.00">fastqc</text>
</g>
<!-- 4&#45;&gt;1 -->
<g id="edge8" class="edge"><title>4&#45;&gt;1</title>
<path fill="none" stroke="grey" stroke-width="2" d="M559.045,-359.697C568.062,-351.05 579.118,-340.449 588.943,-331.027"/>
<polygon fill="grey" stroke="grey" points="591.367,-333.552 596.163,-324.104 586.522,-328.499 591.367,-333.552"/>
</g>
<!-- 5 -->
<g id="node6" class="node"><title>5</title>
<path fill="none" stroke="#d6d856" stroke-width="2" stroke-dasharray="5,2" d="M533.25,-484C533.25,-484 456.75,-484 456.75,-484 450.75,-484 444.75,-478 444.75,-472 444.75,-472 444.75,-444 444.75,-444 444.75,-438 450.75,-432 456.75,-432 456.75,-432 533.25,-432 533.25,-432 539.25,-432 545.25,-438 545.25,-444 545.25,-444 545.25,-472 545.25,-472 545.25,-478 539.25,-484 533.25,-484"/>
<text text-anchor="middle" x="495" y="-472" font-family="sans" font-size="10.00">clean_names</text>
<text text-anchor="middle" x="495" y="-461" font-family="sans" font-size="10.00">lane: 1</text>
<text text-anchor="middle" x="495" y="-450" font-family="sans" font-size="10.00">read: R2</text>
<text text-anchor="middle" x="495" y="-439" font-family="sans" font-size="10.00">sample: sample1</text>
</g>
<!-- 5&#45;&gt;4 -->
<g id="edge16" class="edge"><title>5&#45;&gt;4</title>
<path fill="none" stroke="grey" stroke-width="2" d="M509.808,-431.891C514.823,-423.388 520.435,-413.871 525.502,-405.279"/>
<polygon fill="grey" stroke="grey" points="528.667,-406.802 530.732,-396.411 522.637,-403.246 528.667,-406.802"/>
</g>
<!-- 5&#45;&gt;19 -->
<g id="edge25" class="edge"><title>5&#45;&gt;19</title>
<path fill="none" stroke="grey" stroke-width="2" d="M459.59,-431.891C446.092,-422.319 430.782,-411.464 417.561,-402.089"/>
<polygon fill="grey" stroke="grey" points="419.396,-399.099 409.214,-396.17 415.347,-404.81 419.396,-399.099"/>
</g>
<!-- 6 -->
<g id="node7" class="node"><title>6</title>
<path fill="none" stroke="#56d8a9" stroke-width="2" stroke-dasharray="5,2" d="M713,-396C713,-396 683,-396 683,-396 677,-396 671,-390 671,-384 671,-384 671,-372 671,-372 671,-366 677,-360 683,-360 683,-360 713,-360 713,-360 719,-360 725,-366 725,-372 725,-372 725,-384 725,-384 725,-390 719,-396 713,-396"/>
<text text-anchor="middle" x="698" y="-375.5" font-family="sans" font-size="10.00">fastqc</text>
</g>
<!-- 6&#45;&gt;1 -->
<g id="edge9" class="edge"><title>6&#45;&gt;1</title>
<path fill="none" stroke="grey" stroke-width="2" d="M677.236,-359.697C666.759,-350.965 653.889,-340.24 642.5,-330.75"/>
<polygon fill="grey" stroke="grey" points="644.448,-327.817 634.525,-324.104 639.967,-333.195 644.448,-327.817"/>
</g>
<!-- 7 -->
<g id="node8" class="node"><title>7</title>
<path fill="none" stroke="#d6d856" stroke-width="2" stroke-dasharray="5,2" d="M771.25,-484C771.25,-484 694.75,-484 694.75,-484 688.75,-484 682.75,-478 682.75,-472 682.75,-472 682.75,-444 682.75,-444 682.75,-438 688.75,-432 694.75,-432 694.75,-432 771.25,-432 771.25,-432 777.25,-432 783.25,-438 783.25,-444 783.25,-444 783.25,-472 783.25,-472 783.25,-478 777.25,-484 771.25,-484"/>
<text text-anchor="middle" x="733" y="-472" font-family="sans" font-size="10.00">clean_names</text>
<text text-anchor="middle" x="733" y="-461" font-family="sans" font-size="10.00">lane: 1</text>
<text text-anchor="middle" x="733" y="-450" font-family="sans" font-size="10.00">read: I1</text>
<text text-anchor="middle" x="733" y="-439" font-family="sans" font-size="10.00">sample: sample1</text>
</g>
<!-- 7&#45;&gt;6 -->
<g id="edge17" class="edge"><title>7&#45;&gt;6</title>
<path fill="none" stroke="grey" stroke-width="2" d="M721.733,-431.891C717.958,-423.478 713.738,-414.073 709.915,-405.553"/>
<polygon fill="grey" stroke="grey" points="713.1,-404.101 705.812,-396.411 706.713,-406.967 713.1,-404.101"/>
</g>
<!-- 8 -->
<g id="node9" class="node"><title>8</title>
<path fill="none" stroke="#56d8a9" stroke-width="2" stroke-dasharray="5,2" d="M808,-396C808,-396 778,-396 778,-396 772,-396 766,-390 766,-384 766,-384 766,-372 766,-372 766,-366 772,-360 778,-360 778,-360 808,-360 808,-360 814,-360 820,-366 820,-372 820,-372 820,-384 820,-384 820,-390 814,-396 808,-396"/>
<text text-anchor="middle" x="793" y="-375.5" font-family="sans" font-size="10.00">fastqc</text>
</g>
<!-- 8&#45;&gt;1 -->
<g id="edge10" class="edge"><title>8&#45;&gt;1</title>
<path fill="none" stroke="grey" stroke-width="2" d="M765.814,-366.369C735.104,-354.359 684.961,-334.75 650.772,-321.38"/>
<polygon fill="grey" stroke="grey" points="651.736,-317.999 641.148,-317.617 649.187,-324.518 651.736,-317.999"/>
</g>
<!-- 9 -->
<g id="node10" class="node"><title>9</title>
<path fill="none" stroke="#d6d856" stroke-width="2" stroke-dasharray="5,2" d="M890.25,-484C890.25,-484 813.75,-484 813.75,-484 807.75,-484 801.75,-478 801.75,-472 801.75,-472 801.75,-444 801.75,-444 801.75,-438 807.75,-432 813.75,-432 813.75,-432 890.25,-432 890.25,-432 896.25,-432 902.25,-438 902.25,-444 902.25,-444 902.25,-472 902.25,-472 902.25,-478 896.25,-484 890.25,-484"/>
<text text-anchor="middle" x="852" y="-472" font-family="sans" font-size="10.00">clean_names</text>
<text text-anchor="middle" x="852" y="-461" font-family="sans" font-size="10.00">lane: 1</text>
<text text-anchor="middle" x="852" y="-450" font-family="sans" font-size="10.00">read: I2</text>
<text text-anchor="middle" x="852" y="-439" font-family="sans" font-size="10.00">sample: sample1</text>
</g>
<!-- 9&#45;&gt;8 -->
<g id="edge18" class="edge"><title>9&#45;&gt;8</title>
<path fill="none" stroke="grey" stroke-width="2" d="M833.007,-431.891C826.37,-423.116 818.916,-413.262 812.258,-404.459"/>
<polygon fill="grey" stroke="grey" points="814.994,-402.275 806.17,-396.411 809.411,-406.498 814.994,-402.275"/>
</g>
<!-- 10 -->
<g id="node11" class="node"><title>10</title>
<path fill="none" stroke="#56d8a9" stroke-width="2" stroke-dasharray="5,2" d="M483,-396C483,-396 453,-396 453,-396 447,-396 441,-390 441,-384 441,-384 441,-372 441,-372 441,-366 447,-360 453,-360 453,-360 483,-360 483,-360 489,-360 495,-366 495,-372 495,-372 495,-384 495,-384 495,-390 489,-396 483,-396"/>
<text text-anchor="middle" x="468" y="-375.5" font-family="sans" font-size="10.00">fastqc</text>
</g>
<!-- 10&#45;&gt;1 -->
<g id="edge11" class="edge"><title>10&#45;&gt;1</title>
<path fill="none" stroke="grey" stroke-width="2" d="M495.119,-363.998C518.328,-352.87 551.942,-336.754 577.509,-324.496"/>
<polygon fill="grey" stroke="grey" points="579.026,-327.65 586.53,-320.17 576,-321.338 579.026,-327.65"/>
</g>
<!-- 11 -->
<g id="node12" class="node"><title>11</title>
<path fill="none" stroke="#d6d856" stroke-width="2" stroke-dasharray="5,2" d="M414.25,-484C414.25,-484 337.75,-484 337.75,-484 331.75,-484 325.75,-478 325.75,-472 325.75,-472 325.75,-444 325.75,-444 325.75,-438 331.75,-432 337.75,-432 337.75,-432 414.25,-432 414.25,-432 420.25,-432 426.25,-438 426.25,-444 426.25,-444 426.25,-472 426.25,-472 426.25,-478 420.25,-484 414.25,-484"/>
<text text-anchor="middle" x="376" y="-472" font-family="sans" font-size="10.00">clean_names</text>
<text text-anchor="middle" x="376" y="-461" font-family="sans" font-size="10.00">lane: 1</text>
<text text-anchor="middle" x="376" y="-450" font-family="sans" font-size="10.00">read: R1</text>
<text text-anchor="middle" x="376" y="-439" font-family="sans" font-size="10.00">sample: sample2</text>
</g>
<!-- 11&#45;&gt;10 -->
<g id="edge19" class="edge"><title>11&#45;&gt;10</title>
<path fill="none" stroke="grey" stroke-width="2" d="M405.616,-431.891C416.583,-422.593 428.979,-412.083 439.815,-402.896"/>
<polygon fill="grey" stroke="grey" points="442.384,-405.307 447.748,-396.17 437.857,-399.967 442.384,-405.307"/>
</g>
<!-- 23 -->
<g id="node24" class="node"><title>23</title>
<path fill="none" stroke="#d8ac56" stroke-width="2" d="M279,-396C279,-396 249,-396 249,-396 243,-396 237,-390 237,-384 237,-384 237,-372 237,-372 237,-366 243,-360 249,-360 249,-360 279,-360 279,-360 285,-360 291,-366 291,-372 291,-372 291,-384 291,-384 291,-390 285,-396 279,-396"/>
<text text-anchor="middle" x="264" y="-375.5" font-family="sans" font-size="10.00">counts</text>
</g>
<!-- 11&#45;&gt;23 -->
<g id="edge29" class="edge"><title>11&#45;&gt;23</title>
<path fill="none" stroke="grey" stroke-width="2" d="M339.946,-431.891C326.202,-422.319 310.615,-411.464 297.153,-402.089"/>
<polygon fill="grey" stroke="grey" points="298.861,-399.013 288.655,-396.17 294.861,-404.757 298.861,-399.013"/>
</g>
<!-- 12 -->
<g id="node13" class="node"><title>12</title>
<path fill="none" stroke="#56d8a9" stroke-width="2" stroke-dasharray="5,2" d="M136,-396C136,-396 106,-396 106,-396 100,-396 94,-390 94,-384 94,-384 94,-372 94,-372 94,-366 100,-360 106,-360 106,-360 136,-360 136,-360 142,-360 148,-366 148,-372 148,-372 148,-384 148,-384 148,-390 142,-396 136,-396"/>
<text text-anchor="middle" x="121" y="-375.5" font-family="sans" font-size="10.00">fastqc</text>
</g>
<!-- 12&#45;&gt;1 -->
<g id="edge12" class="edge"><title>12&#45;&gt;1</title>
<path fill="none" stroke="grey" stroke-width="2" d="M148.242,-372.509C169.852,-368.986 200.835,-364.023 228,-360 355.928,-341.057 508.065,-320.848 576.901,-311.829"/>
<polygon fill="grey" stroke="grey" points="577.367,-315.298 586.829,-310.53 576.459,-308.357 577.367,-315.298"/>
</g>
<!-- 13 -->
<g id="node14" class="node"><title>13</title>
<path fill="none" stroke="#d6d856" stroke-width="2" stroke-dasharray="5,2" d="M88.25,-484C88.25,-484 11.75,-484 11.75,-484 5.75,-484 -0.25,-478 -0.25,-472 -0.25,-472 -0.25,-444 -0.25,-444 -0.25,-438 5.75,-432 11.75,-432 11.75,-432 88.25,-432 88.25,-432 94.25,-432 100.25,-438 100.25,-444 100.25,-444 100.25,-472 100.25,-472 100.25,-478 94.25,-484 88.25,-484"/>
<text text-anchor="middle" x="50" y="-472" font-family="sans" font-size="10.00">clean_names</text>
<text text-anchor="middle" x="50" y="-461" font-family="sans" font-size="10.00">lane: 1</text>
<text text-anchor="middle" x="50" y="-450" font-family="sans" font-size="10.00">read: R2</text>
<text text-anchor="middle" x="50" y="-439" font-family="sans" font-size="10.00">sample: sample2</text>
</g>
<!-- 13&#45;&gt;12 -->
<g id="edge20" class="edge"><title>13&#45;&gt;12</title>
<path fill="none" stroke="grey" stroke-width="2" d="M72.8557,-431.891C81.0076,-422.935 90.1829,-412.855 98.32,-403.916"/>
<polygon fill="grey" stroke="grey" points="101.009,-406.162 105.152,-396.411 95.8321,-401.45 101.009,-406.162"/>
</g>
<!-- 13&#45;&gt;23 -->
<g id="edge30" class="edge"><title>13&#45;&gt;23</title>
<path fill="none" stroke="grey" stroke-width="2" d="M100.322,-435.761C103.588,-434.466 106.835,-433.202 110,-432 149.711,-416.911 195.852,-401.278 227.199,-390.937"/>
<polygon fill="grey" stroke="grey" points="228.422,-394.219 236.83,-387.773 226.237,-387.569 228.422,-394.219"/>
</g>
<!-- 14 -->
<g id="node15" class="node"><title>14</title>
<path fill="none" stroke="#56d8a9" stroke-width="2" stroke-dasharray="5,2" d="M927,-396C927,-396 897,-396 897,-396 891,-396 885,-390 885,-384 885,-384 885,-372 885,-372 885,-366 891,-360 897,-360 897,-360 927,-360 927,-360 933,-360 939,-366 939,-372 939,-372 939,-384 939,-384 939,-390 933,-396 927,-396"/>
<text text-anchor="middle" x="912" y="-375.5" font-family="sans" font-size="10.00">fastqc</text>
</g>
<!-- 14&#45;&gt;1 -->
<g id="edge13" class="edge"><title>14&#45;&gt;1</title>
<path fill="none" stroke="grey" stroke-width="2" d="M884.764,-370.602C831.114,-358 711.706,-329.951 650.989,-315.689"/>
<polygon fill="grey" stroke="grey" points="651.6,-312.237 641.064,-313.357 649.999,-319.052 651.6,-312.237"/>
</g>
<!-- 15 -->
<g id="node16" class="node"><title>15</title>
<path fill="none" stroke="#d6d856" stroke-width="2" stroke-dasharray="5,2" d="M1009.25,-484C1009.25,-484 932.75,-484 932.75,-484 926.75,-484 920.75,-478 920.75,-472 920.75,-472 920.75,-444 920.75,-444 920.75,-438 926.75,-432 932.75,-432 932.75,-432 1009.25,-432 1009.25,-432 1015.25,-432 1021.25,-438 1021.25,-444 1021.25,-444 1021.25,-472 1021.25,-472 1021.25,-478 1015.25,-484 1009.25,-484"/>
<text text-anchor="middle" x="971" y="-472" font-family="sans" font-size="10.00">clean_names</text>
<text text-anchor="middle" x="971" y="-461" font-family="sans" font-size="10.00">lane: 1</text>
<text text-anchor="middle" x="971" y="-450" font-family="sans" font-size="10.00">read: I1</text>
<text text-anchor="middle" x="971" y="-439" font-family="sans" font-size="10.00">sample: sample2</text>
</g>
<!-- 15&#45;&gt;14 -->
<g id="edge21" class="edge"><title>15&#45;&gt;14</title>
<path fill="none" stroke="grey" stroke-width="2" d="M952.007,-431.891C945.37,-423.116 937.916,-413.262 931.258,-404.459"/>
<polygon fill="grey" stroke="grey" points="933.994,-402.275 925.17,-396.411 928.411,-406.498 933.994,-402.275"/>
</g>
<!-- 16 -->
<g id="node17" class="node"><title>16</title>
<path fill="none" stroke="#56d8a9" stroke-width="2" stroke-dasharray="5,2" d="M1093,-396C1093,-396 1063,-396 1063,-396 1057,-396 1051,-390 1051,-384 1051,-384 1051,-372 1051,-372 1051,-366 1057,-360 1063,-360 1063,-360 1093,-360 1093,-360 1099,-360 1105,-366 1105,-372 1105,-372 1105,-384 1105,-384 1105,-390 1099,-396 1093,-396"/>
<text text-anchor="middle" x="1078" y="-375.5" font-family="sans" font-size="10.00">fastqc</text>
</g>
<!-- 16&#45;&gt;1 -->
<g id="edge14" class="edge"><title>16&#45;&gt;1</title>
<path fill="none" stroke="grey" stroke-width="2" d="M1050.71,-372.883C971.571,-360.944 741.905,-326.296 651.344,-312.634"/>
<polygon fill="grey" stroke="grey" points="651.669,-309.143 641.259,-311.112 650.625,-316.065 651.669,-309.143"/>
</g>
<!-- 17 -->
<g id="node18" class="node"><title>17</title>
<path fill="none" stroke="#d6d856" stroke-width="2" stroke-dasharray="5,2" d="M1128.25,-484C1128.25,-484 1051.75,-484 1051.75,-484 1045.75,-484 1039.75,-478 1039.75,-472 1039.75,-472 1039.75,-444 1039.75,-444 1039.75,-438 1045.75,-432 1051.75,-432 1051.75,-432 1128.25,-432 1128.25,-432 1134.25,-432 1140.25,-438 1140.25,-444 1140.25,-444 1140.25,-472 1140.25,-472 1140.25,-478 1134.25,-484 1128.25,-484"/>
<text text-anchor="middle" x="1090" y="-472" font-family="sans" font-size="10.00">clean_names</text>
<text text-anchor="middle" x="1090" y="-461" font-family="sans" font-size="10.00">lane: 1</text>
<text text-anchor="middle" x="1090" y="-450" font-family="sans" font-size="10.00">read: I2</text>
<text text-anchor="middle" x="1090" y="-439" font-family="sans" font-size="10.00">sample: sample2</text>
</g>
<!-- 17&#45;&gt;16 -->
<g id="edge22" class="edge"><title>17&#45;&gt;16</title>
<path fill="none" stroke="grey" stroke-width="2" d="M1086.14,-431.891C1084.88,-423.749 1083.49,-414.679 1082.21,-406.381"/>
<polygon fill="grey" stroke="grey" points="1085.66,-405.762 1080.68,-396.411 1078.74,-406.827 1085.66,-405.762"/>
</g>
<!-- 18 -->
<g id="node19" class="node"><title>18</title>
<path fill="none" stroke="#56d8d8" stroke-width="2" d="M400,-324C400,-324 370,-324 370,-324 364,-324 358,-318 358,-312 358,-312 358,-300 358,-300 358,-294 364,-288 370,-288 370,-288 400,-288 400,-288 406,-288 412,-294 412,-300 412,-300 412,-312 412,-312 412,-318 406,-324 400,-324"/>
<text text-anchor="middle" x="385" y="-303.5" font-family="sans" font-size="10.00">seurat</text>
</g>
<!-- 18&#45;&gt;0 -->
<g id="edge2" class="edge"><title>18&#45;&gt;0</title>
<path fill="none" stroke="grey" stroke-width="2" d="M402.072,-287.894C410.706,-278.186 420.497,-265.334 426,-252 456.61,-177.826 456.312,-150.566 440,-72 438.124,-62.9647 434.626,-53.5785 430.914,-45.2606"/>
<polygon fill="grey" stroke="grey" points="433.999,-43.5984 426.542,-36.0718 427.678,-46.6057 433.999,-43.5984"/>
</g>
<!-- 24 -->
<g id="node25" class="node"><title>24</title>
<path fill="none" stroke="#56d882" stroke-width="2" d="M405,-252C405,-252 359,-252 359,-252 353,-252 347,-246 347,-240 347,-240 347,-228 347,-228 347,-222 353,-216 359,-216 359,-216 405,-216 405,-216 411,-216 417,-222 417,-228 417,-228 417,-240 417,-240 417,-246 411,-252 405,-252"/>
<text text-anchor="middle" x="382" y="-231.5" font-family="sans" font-size="10.00">integration</text>
</g>
<!-- 18&#45;&gt;24 -->
<g id="edge33" class="edge"><title>18&#45;&gt;24</title>
<path fill="none" stroke="grey" stroke-width="2" d="M384.258,-287.697C383.928,-279.983 383.531,-270.712 383.162,-262.112"/>
<polygon fill="grey" stroke="grey" points="386.658,-261.945 382.733,-252.104 379.665,-262.245 386.658,-261.945"/>
</g>
<!-- 19&#45;&gt;18 -->
<g id="edge23" class="edge"><title>19&#45;&gt;18</title>
<path fill="none" stroke="grey" stroke-width="2" d="M385,-359.697C385,-351.983 385,-342.712 385,-334.112"/>
<polygon fill="grey" stroke="grey" points="388.5,-334.104 385,-324.104 381.5,-334.104 388.5,-334.104"/>
</g>
<!-- 20 -->
<g id="node21" class="node"><title>20</title>
<path fill="none" stroke="#afd856" stroke-width="2" d="M295,-476C295,-476 233,-476 233,-476 227,-476 221,-470 221,-464 221,-464 221,-452 221,-452 221,-446 227,-440 233,-440 233,-440 295,-440 295,-440 301,-440 307,-446 307,-452 307,-452 307,-464 307,-464 307,-470 301,-476 295,-476"/>
<text text-anchor="middle" x="264" y="-455.5" font-family="sans" font-size="10.00">get_cellranger</text>
</g>
<!-- 20&#45;&gt;19 -->
<g id="edge26" class="edge"><title>20&#45;&gt;19</title>
<path fill="none" stroke="grey" stroke-width="2" d="M290.554,-439.883C307.97,-428.656 330.936,-413.851 349.859,-401.653"/>
<polygon fill="grey" stroke="grey" points="351.999,-404.437 358.508,-396.078 348.207,-398.554 351.999,-404.437"/>
</g>
<!-- 20&#45;&gt;23 -->
<g id="edge31" class="edge"><title>20&#45;&gt;23</title>
<path fill="none" stroke="grey" stroke-width="2" d="M264,-439.689C264,-429.894 264,-417.422 264,-406.335"/>
<polygon fill="grey" stroke="grey" points="267.5,-406.262 264,-396.262 260.5,-406.262 267.5,-406.262"/>
</g>
<!-- 21 -->
<g id="node22" class="node"><title>21</title>
<path fill="none" stroke="#56a9d8" stroke-width="2" d="M191,-476C191,-476 131,-476 131,-476 125,-476 119,-470 119,-464 119,-464 119,-452 119,-452 119,-446 125,-440 131,-440 131,-440 191,-440 191,-440 197,-440 203,-446 203,-452 203,-452 203,-464 203,-464 203,-470 197,-476 191,-476"/>
<text text-anchor="middle" x="161" y="-455.5" font-family="sans" font-size="10.00">get_reference</text>
</g>
<!-- 21&#45;&gt;19 -->
<g id="edge27" class="edge"><title>21&#45;&gt;19</title>
<path fill="none" stroke="grey" stroke-width="2" d="M193.852,-439.952C199.818,-437.128 206.04,-434.357 212,-432 257.863,-413.866 312.541,-398.04 347.971,-388.512"/>
<polygon fill="grey" stroke="grey" points="349.11,-391.831 357.874,-385.878 347.31,-385.066 349.11,-391.831"/>
</g>
<!-- 21&#45;&gt;23 -->
<g id="edge32" class="edge"><title>21&#45;&gt;23</title>
<path fill="none" stroke="grey" stroke-width="2" d="M183.604,-439.883C198.228,-428.808 217.448,-414.253 233.429,-402.151"/>
<polygon fill="grey" stroke="grey" points="235.59,-404.905 241.449,-396.078 231.364,-399.324 235.59,-404.905"/>
</g>
<!-- 22 -->
<g id="node23" class="node"><title>22</title>
<path fill="none" stroke="#56d8d8" stroke-width="2" d="M285,-324C285,-324 255,-324 255,-324 249,-324 243,-318 243,-312 243,-312 243,-300 243,-300 243,-294 249,-288 255,-288 255,-288 285,-288 285,-288 291,-288 297,-294 297,-300 297,-300 297,-312 297,-312 297,-318 291,-324 285,-324"/>
<text text-anchor="middle" x="270" y="-303.5" font-family="sans" font-size="10.00">seurat</text>
</g>
<!-- 22&#45;&gt;0 -->
<g id="edge3" class="edge"><title>22&#45;&gt;0</title>
<path fill="none" stroke="grey" stroke-width="2" d="M265.866,-287.736C256.96,-246.08 240.475,-138.582 289,-72 310.162,-42.963 350.213,-29.767 379.902,-23.8119"/>
<polygon fill="grey" stroke="grey" points="380.709,-27.2228 389.923,-21.9934 379.459,-20.3352 380.709,-27.2228"/>
</g>
<!-- 22&#45;&gt;24 -->
<g id="edge34" class="edge"><title>22&#45;&gt;24</title>
<path fill="none" stroke="grey" stroke-width="2" d="M297.112,-288.055C311.861,-278.837 330.29,-267.319 346.206,-257.371"/>
<polygon fill="grey" stroke="grey" points="348.124,-260.3 354.749,-252.032 344.414,-254.364 348.124,-260.3"/>
</g>
<!-- 23&#45;&gt;22 -->
<g id="edge28" class="edge"><title>23&#45;&gt;22</title>
<path fill="none" stroke="grey" stroke-width="2" d="M265.483,-359.697C266.144,-351.983 266.939,-342.712 267.676,-334.112"/>
<polygon fill="grey" stroke="grey" points="271.167,-334.367 268.534,-324.104 264.193,-333.769 271.167,-334.367"/>
</g>
<!-- 24&#45;&gt;0 -->
<g id="edge4" class="edge"><title>24&#45;&gt;0</title>
<path fill="none" stroke="grey" stroke-width="2" d="M397.183,-215.703C404.732,-205.939 413.066,-193.095 417,-180 430.582,-134.784 426.242,-79.1474 421.716,-46.5243"/>
<polygon fill="grey" stroke="grey" points="425.141,-45.7633 420.2,-36.3914 418.218,-46.7992 425.141,-45.7633"/>
</g>
<!-- 25 -->
<g id="node26" class="node"><title>25</title>
<path fill="none" stroke="#5682d8" stroke-width="2" d="M396,-180C396,-180 366,-180 366,-180 360,-180 354,-174 354,-168 354,-168 354,-156 354,-156 354,-150 360,-144 366,-144 366,-144 396,-144 396,-144 402,-144 408,-150 408,-156 408,-156 408,-168 408,-168 408,-174 402,-180 396,-180"/>
<text text-anchor="middle" x="381" y="-159.5" font-family="sans" font-size="10.00">singler</text>
</g>
<!-- 24&#45;&gt;25 -->
<g id="edge35" class="edge"><title>24&#45;&gt;25</title>
<path fill="none" stroke="grey" stroke-width="2" d="M381.753,-215.697C381.643,-207.983 381.51,-198.712 381.387,-190.112"/>
<polygon fill="grey" stroke="grey" points="384.887,-190.053 381.244,-180.104 377.888,-190.153 384.887,-190.053"/>
</g>
<!-- 25&#45;&gt;0 -->
<g id="edge5" class="edge"><title>25&#45;&gt;0</title>
<path fill="none" stroke="grey" stroke-width="2" d="M385.342,-143.871C391.505,-119.564 402.849,-74.8187 410.152,-46.0132"/>
<polygon fill="grey" stroke="grey" points="413.577,-46.7427 412.642,-36.1893 406.792,-45.0225 413.577,-46.7427"/>
</g>
<!-- 26 -->
<g id="node27" class="node"><title>26</title>
<path fill="none" stroke="#d88556" stroke-width="2" d="M358,-108C358,-108 310,-108 310,-108 304,-108 298,-102 298,-96 298,-96 298,-84 298,-84 298,-78 304,-72 310,-72 310,-72 358,-72 358,-72 364,-72 370,-78 370,-84 370,-84 370,-96 370,-96 370,-102 364,-108 358,-108"/>
<text text-anchor="middle" x="334" y="-87.5" font-family="sans" font-size="10.00">enrichment</text>
</g>
<!-- 25&#45;&gt;26 -->
<g id="edge36" class="edge"><title>25&#45;&gt;26</title>
<path fill="none" stroke="grey" stroke-width="2" d="M369.382,-143.697C363.861,-135.474 357.153,-125.483 351.068,-116.421"/>
<polygon fill="grey" stroke="grey" points="353.965,-114.456 345.484,-108.104 348.153,-118.358 353.965,-114.456"/>
</g>
<!-- 26&#45;&gt;0 -->
<g id="edge6" class="edge"><title>26&#45;&gt;0</title>
<path fill="none" stroke="grey" stroke-width="2" d="M354.517,-71.6966C364.869,-62.9655 377.586,-52.2405 388.839,-42.7503"/>
<polygon fill="grey" stroke="grey" points="391.331,-45.2269 396.719,-36.1043 386.818,-39.8759 391.331,-45.2269"/>
</g>
</g>
</svg>
