<?xml version="1.0" encoding="UTF-8" standalone="no"?>
<!DOCTYPE svg PUBLIC "-//W3C//DTD SVG 1.1//EN"
 "http://www.w3.org/Graphics/SVG/1.1/DTD/svg11.dtd">
<!-- Generated by graphviz version 2.30.1 (20180420.1509)
 -->
<!-- Title: snakemake_dag Pages: 1 -->
<svg width="434pt" height="276pt"
 viewBox="0.00 0.00 434.00 276.00" xmlns="http://www.w3.org/2000/svg" xmlns:xlink="http://www.w3.org/1999/xlink">
<g id="graph0" class="graph" transform="scale(1 1) rotate(0) translate(4 272)">
<title>snakemake_dag</title>
<polygon fill="white" stroke="white" points="-4,5 -4,-272 431,-272 431,5 -4,5"/>
<!-- 0 -->
<g id="node1" class="node"><title>0</title>
<path fill="none" stroke="#56d8a9" stroke-width="2" d="M208,-36C208,-36 178,-36 178,-36 172,-36 166,-30 166,-24 166,-24 166,-12 166,-12 166,-6 172,-0 178,-0 178,-0 208,-0 208,-0 214,-0 220,-6 220,-12 220,-12 220,-24 220,-24 220,-30 214,-36 208,-36"/>
<text text-anchor="middle" x="193" y="-15.5" font-family="sans" font-size="10.00">report</text>
</g>
<!-- 1 -->
<g id="node2" class="node"><title>1</title>
<path fill="none" stroke="#56d882" stroke-width="2" d="M172,-108C172,-108 142,-108 142,-108 136,-108 130,-102 130,-96 130,-96 130,-84 130,-84 130,-78 136,-72 142,-72 142,-72 172,-72 172,-72 178,-72 184,-78 184,-84 184,-84 184,-96 184,-96 184,-102 178,-108 172,-108"/>
<text text-anchor="middle" x="157" y="-87.5" font-family="sans" font-size="10.00">multiqc</text>
</g>
<!-- 1&#45;&gt;0 -->
<g id="edge1" class="edge"><title>1&#45;&gt;0</title>
<path fill="none" stroke="grey" stroke-width="2" d="M165.899,-71.6966C169.997,-63.7284 174.949,-54.0995 179.493,-45.2641"/>
<polygon fill="grey" stroke="grey" points="182.742,-46.598 184.203,-36.1043 176.517,-43.3965 182.742,-46.598"/>
</g>
<!-- 2 -->
<g id="node3" class="node"><title>2</title>
<path fill="none" stroke="#5682d8" stroke-width="2" d="M172,-180C172,-180 142,-180 142,-180 136,-180 130,-174 130,-168 130,-168 130,-156 130,-156 130,-150 136,-144 142,-144 142,-144 172,-144 172,-144 178,-144 184,-150 184,-156 184,-156 184,-168 184,-168 184,-174 178,-180 172,-180"/>
<text text-anchor="middle" x="157" y="-159.5" font-family="sans" font-size="10.00">fastqc</text>
</g>
<!-- 2&#45;&gt;1 -->
<g id="edge3" class="edge"><title>2&#45;&gt;1</title>
<path fill="none" stroke="grey" stroke-width="2" d="M157,-143.697C157,-135.983 157,-126.712 157,-118.112"/>
<polygon fill="grey" stroke="grey" points="160.5,-118.104 157,-108.104 153.5,-118.104 160.5,-118.104"/>
</g>
<!-- 3 -->
<g id="node4" class="node"><title>3</title>
<path fill="none" stroke="#d8ac56" stroke-width="2" d="M207.25,-268C207.25,-268 130.75,-268 130.75,-268 124.75,-268 118.75,-262 118.75,-256 118.75,-256 118.75,-228 118.75,-228 118.75,-222 124.75,-216 130.75,-216 130.75,-216 207.25,-216 207.25,-216 213.25,-216 219.25,-222 219.25,-228 219.25,-228 219.25,-256 219.25,-256 219.25,-262 213.25,-268 207.25,-268"/>
<text text-anchor="middle" x="169" y="-256" font-family="sans" font-size="10.00">clean_names</text>
<text text-anchor="middle" x="169" y="-245" font-family="sans" font-size="10.00">lane: 1</text>
<text text-anchor="middle" x="169" y="-234" font-family="sans" font-size="10.00">read: R1</text>
<text text-anchor="middle" x="169" y="-223" font-family="sans" font-size="10.00">sample: sample1</text>
</g>
<!-- 3&#45;&gt;2 -->
<g id="edge5" class="edge"><title>3&#45;&gt;2</title>
<path fill="none" stroke="grey" stroke-width="2" d="M165.137,-215.891C163.885,-207.749 162.489,-198.679 161.212,-190.381"/>
<polygon fill="grey" stroke="grey" points="164.659,-189.762 159.679,-180.411 157.74,-190.827 164.659,-189.762"/>
</g>
<!-- 7 -->
<g id="node8" class="node"><title>7</title>
<path fill="none" stroke="#d85656" stroke-width="2" d="M244,-180C244,-180 214,-180 214,-180 208,-180 202,-174 202,-168 202,-168 202,-156 202,-156 202,-150 208,-144 214,-144 214,-144 244,-144 244,-144 250,-144 256,-150 256,-156 256,-156 256,-168 256,-168 256,-174 250,-180 244,-180"/>
<text text-anchor="middle" x="229" y="-159.5" font-family="sans" font-size="10.00">counts</text>
</g>
<!-- 3&#45;&gt;7 -->
<g id="edge8" class="edge"><title>3&#45;&gt;7</title>
<path fill="none" stroke="grey" stroke-width="2" d="M188.315,-215.891C195.064,-207.116 202.644,-197.262 209.416,-188.459"/>
<polygon fill="grey" stroke="grey" points="212.284,-190.471 215.607,-180.411 206.736,-186.203 212.284,-190.471"/>
</g>
<!-- 4 -->
<g id="node5" class="node"><title>4</title>
<path fill="none" stroke="#5682d8" stroke-width="2" d="M77,-180C77,-180 47,-180 47,-180 41,-180 35,-174 35,-168 35,-168 35,-156 35,-156 35,-150 41,-144 47,-144 47,-144 77,-144 77,-144 83,-144 89,-150 89,-156 89,-156 89,-168 89,-168 89,-174 83,-180 77,-180"/>
<text text-anchor="middle" x="62" y="-159.5" font-family="sans" font-size="10.00">fastqc</text>
</g>
<!-- 4&#45;&gt;1 -->
<g id="edge4" class="edge"><title>4&#45;&gt;1</title>
<path fill="none" stroke="grey" stroke-width="2" d="M85.4832,-143.697C97.5626,-134.796 112.454,-123.823 125.516,-114.199"/>
<polygon fill="grey" stroke="grey" points="127.813,-116.854 133.787,-108.104 123.66,-111.219 127.813,-116.854"/>
</g>
<!-- 5 -->
<g id="node6" class="node"><title>5</title>
<path fill="none" stroke="#d8ac56" stroke-width="2" d="M88.25,-268C88.25,-268 11.75,-268 11.75,-268 5.75,-268 -0.25,-262 -0.25,-256 -0.25,-256 -0.25,-228 -0.25,-228 -0.25,-222 5.75,-216 11.75,-216 11.75,-216 88.25,-216 88.25,-216 94.25,-216 100.25,-222 100.25,-228 100.25,-228 100.25,-256 100.25,-256 100.25,-262 94.25,-268 88.25,-268"/>
<text text-anchor="middle" x="50" y="-256" font-family="sans" font-size="10.00">clean_names</text>
<text text-anchor="middle" x="50" y="-245" font-family="sans" font-size="10.00">lane: 1</text>
<text text-anchor="middle" x="50" y="-234" font-family="sans" font-size="10.00">read: R2</text>
<text text-anchor="middle" x="50" y="-223" font-family="sans" font-size="10.00">sample: sample1</text>
</g>
<!-- 5&#45;&gt;4 -->
<g id="edge6" class="edge"><title>5&#45;&gt;4</title>
<path fill="none" stroke="grey" stroke-width="2" d="M53.8629,-215.891C55.1155,-207.749 56.5109,-198.679 57.7876,-190.381"/>
<polygon fill="grey" stroke="grey" points="61.2601,-190.827 59.3214,-180.411 54.3415,-189.762 61.2601,-190.827"/>
</g>
<!-- 5&#45;&gt;7 -->
<g id="edge9" class="edge"><title>5&#45;&gt;7</title>
<path fill="none" stroke="grey" stroke-width="2" d="M100.395,-219.614C132.567,-205.944 171.13,-189.525 192.765,-180"/>
<polygon fill="grey" stroke="grey" points="194.214,-183.187 201.924,-175.921 191.365,-176.792 194.214,-183.187"/>
</g>
<!-- 6 -->
<g id="node7" class="node"><title>6</title>
<path fill="none" stroke="#d88556" stroke-width="2" d="M244,-108C244,-108 214,-108 214,-108 208,-108 202,-102 202,-96 202,-96 202,-84 202,-84 202,-78 208,-72 214,-72 214,-72 244,-72 244,-72 250,-72 256,-78 256,-84 256,-84 256,-96 256,-96 256,-102 250,-108 244,-108"/>
<text text-anchor="middle" x="229" y="-87.5" font-family="sans" font-size="10.00">seurat</text>
</g>
<!-- 6&#45;&gt;0 -->
<g id="edge2" class="edge"><title>6&#45;&gt;0</title>
<path fill="none" stroke="grey" stroke-width="2" d="M220.101,-71.6966C216.003,-63.7284 211.051,-54.0995 206.507,-45.2641"/>
<polygon fill="grey" stroke="grey" points="209.483,-43.3965 201.797,-36.1043 203.258,-46.598 209.483,-43.3965"/>
</g>
<!-- 7&#45;&gt;6 -->
<g id="edge7" class="edge"><title>7&#45;&gt;6</title>
<path fill="none" stroke="grey" stroke-width="2" d="M229,-143.697C229,-135.983 229,-126.712 229,-118.112"/>
<polygon fill="grey" stroke="grey" points="232.5,-118.104 229,-108.104 225.5,-118.104 232.5,-118.104"/>
</g>
<!-- 8 -->
<g id="node9" class="node"><title>8</title>
<path fill="none" stroke="#80d856" stroke-width="2" d="M312,-260C312,-260 250,-260 250,-260 244,-260 238,-254 238,-248 238,-248 238,-236 238,-236 238,-230 244,-224 250,-224 250,-224 312,-224 312,-224 318,-224 324,-230 324,-236 324,-236 324,-248 324,-248 324,-254 318,-260 312,-260"/>
<text text-anchor="middle" x="281" y="-239.5" font-family="sans" font-size="10.00">get_cellranger</text>
</g>
<!-- 8&#45;&gt;7 -->
<g id="edge10" class="edge"><title>8&#45;&gt;7</title>
<path fill="none" stroke="grey" stroke-width="2" d="M269.46,-223.689C262.593,-213.389 253.753,-200.129 246.088,-188.632"/>
<polygon fill="grey" stroke="grey" points="248.967,-186.641 240.508,-180.262 243.143,-190.524 248.967,-186.641"/>
</g>
<!-- 9 -->
<g id="node10" class="node"><title>9</title>
<path fill="none" stroke="#59d856" stroke-width="2" d="M414,-260C414,-260 354,-260 354,-260 348,-260 342,-254 342,-248 342,-248 342,-236 342,-236 342,-230 348,-224 354,-224 354,-224 414,-224 414,-224 420,-224 426,-230 426,-236 426,-236 426,-248 426,-248 426,-254 420,-260 414,-260"/>
<text text-anchor="middle" x="384" y="-239.5" font-family="sans" font-size="10.00">get_reference</text>
</g>
<!-- 9&#45;&gt;7 -->
<g id="edge11" class="edge"><title>9&#45;&gt;7</title>
<path fill="none" stroke="grey" stroke-width="2" d="M349.985,-223.883C324.904,-211.262 290.841,-194.12 265.248,-181.241"/>
<polygon fill="grey" stroke="grey" points="266.741,-178.074 256.235,-176.705 263.594,-184.327 266.741,-178.074"/>
</g>
</g>
</svg>
